<svg xmlns="http://www.w3.org/2000/svg" enable-background="new 0 0 25 25" viewBox="0 0 25 25" id="java"><path fill="#DE002A" d="M11.935,14.391c-0.144,0-0.289-0.042-0.417-0.127c-0.112-0.076-2.756-1.88-2.756-4.209c0-2.457,1.764-3.776,3.182-4.836c1.116-0.834,2.08-1.555,2.08-2.6c0-0.51-0.299-0.768-0.302-0.771c-0.33-0.25-0.395-0.721-0.145-1.051c0.25-0.329,0.721-0.394,1.051-0.145c0.092,0.069,0.896,0.715,0.896,1.966c0,1.796-1.363,2.815-2.681,3.801c-1.327,0.992-2.58,1.93-2.58,3.635c0,1.269,1.512,2.57,2.094,2.965c0.343,0.232,0.433,0.698,0.202,1.041C12.412,14.274,12.175,14.391,11.935,14.391z"></path><path fill="#DE002A" d="M13.815,14.228c-0.414,0-0.75-0.336-0.75-0.75c0-0.695-0.2-0.915-0.53-1.279c-0.382-0.421-0.905-0.997-0.905-2.233c0-2.285,3.912-4.542,4.696-4.971c0.364-0.198,0.818-0.066,1.018,0.297c0.199,0.363,0.066,0.819-0.297,1.018c-1.58,0.866-3.917,2.627-3.917,3.656c0,0.657,0.194,0.871,0.516,1.226c0.388,0.427,0.919,1.013,0.919,2.287C14.565,13.892,14.229,14.228,13.815,14.228z"></path><path fill="#583689" d="M9.018 16.703c-1.703 0-3.167-.205-3.892-.651-.583-.358-.669-.827-.669-1.075 0-1.286 2.092-1.926 3.848-2.237.407-.072.797.2.869.608.072.408-.2.797-.607.869-.909.162-1.863.456-2.35.706 1.605.533 7.433.35 10.206-1.054.372-.186.821-.038 1.008.331.187.37.039.821-.331 1.008C15.23 16.152 11.805 16.703 9.018 16.703zM9.989 19.487c-2.631 0-3.092-1.199-3.164-1.478-.103-.401.14-.81.541-.913.375-.1.756.109.889.465.059.073.639.68 3.189.308 2.593-.379 3.263-.83 3.374-.918.195-.283.566-.405.898-.271.384.155.57.592.416.976-.296.736-1.8 1.307-4.471 1.697C11.024 19.447 10.47 19.487 9.989 19.487zM8.278 17.636c0 0 0 .001 0 .001C8.279 17.637 8.278 17.637 8.278 17.636zM8.278 17.634c0 0 0 .001 0 .001C8.278 17.635 8.278 17.635 8.278 17.634zM8.277 17.633L8.277 17.633 8.277 17.633zM14.741 17.095c0 0 0 .001 0 .001C14.741 17.096 14.741 17.095 14.741 17.095zM14.742 17.093C14.741 17.094 14.741 17.094 14.742 17.093 14.741 17.094 14.741 17.094 14.742 17.093zM14.742 17.091c0 0 0 .001 0 .001C14.742 17.092 14.742 17.092 14.742 17.091zM14.743 17.09C14.743 17.09 14.743 17.09 14.743 17.09 14.743 17.09 14.743 17.09 14.743 17.09z"></path><path fill="#583689" d="M7.978,22.308c-1.762,0-3.179-0.114-3.732-0.334C3.597,21.714,3.5,21.269,3.5,21.026c0-1.104,1.534-1.728,2.448-2.001c0.399-0.119,0.814,0.106,0.933,0.502C7,19.923,6.775,20.341,6.379,20.461c-0.26,0.079-0.535,0.186-0.773,0.298c2.934,0.33,11.68-0.388,12.685-1.445c0.285-0.301,0.76-0.312,1.061-0.027c0.3,0.285,0.312,0.76,0.027,1.061C18.107,21.685,12.098,22.308,7.978,22.308z"></path><path fill="#583689" d="M9.241 24.483c-1.837 0-3.301-.144-3.922-.367-.39-.14-.592-.57-.453-.959.139-.39.57-.593.959-.453 1.627.585 10.786.452 14.533-1.846.354-.215.815-.105 1.032.248.216.354.105.815-.248 1.032C18.292 23.884 12.99 24.483 9.241 24.483zM16.656 18.828c-.29 0-.566-.169-.688-.452-.165-.38.01-.821.39-.986 1.413-.612 3.403-1.925 3.403-2.925 0-.241-.068-.289-.094-.307-.32-.224-1.312-.046-1.874.161-.387.143-.82-.056-.963-.444-.144-.389.055-.82.444-.963.353-.13 2.165-.74 3.25.015.336.234.737.691.737 1.538 0 2.373-3.867 4.112-4.308 4.302C16.856 18.809 16.755 18.828 16.656 18.828z"></path></svg>