<svg xmlns="http://www.w3.org/2000/svg" enable-background="new 0 0 32 32" viewBox="0 0 32 32" id="jquery"><path fill="#F5E6FE" d="M26,32H6c-3.314,0-6-2.686-6-6V6c0-3.314,2.686-6,6-6h20c3.314,0,6,2.686,6,6v20C32,29.314,29.314,32,26,32z"></path><path fill="#BE63F9" d="M8.937,18.897c0.015,0.035,0.033,0.066,0.051,0.099c0.009,0.019,0.021,0.038,0.031,0.055c0.017,0.035,0.036,0.068,0.054,0.101l0.105,0.176c0.019,0.033,0.038,0.064,0.06,0.097c0.037,0.062,0.08,0.124,0.118,0.187c0.017,0.026,0.033,0.052,0.053,0.078c0.073,0.114,0.14,0.209,0.211,0.301c0.051,0.069,0.101,0.136,0.156,0.203c0.018,0.025,0.038,0.051,0.057,0.076l0.147,0.179c0.018,0.021,0.036,0.045,0.055,0.066c0.065,0.078,0.135,0.155,0.204,0.232c0,0.001,0.002,0.003,0.003,0.005c0.086,0.108,0.179,0.204,0.28,0.29l0.003,0.003c0.053,0.054,0.107,0.109,0.164,0.162l0.067,0.064c0.074,0.069,0.148,0.138,0.226,0.204c0.001,0,0.002,0.001,0.003,0.002l0.038,0.033c0.068,0.059,0.137,0.118,0.207,0.173l0.083,0.07c0.057,0.045,0.116,0.088,0.174,0.133l0.091,0.069c0.062,0.046,0.128,0.092,0.192,0.137c0.023,0.017,0.047,0.033,0.071,0.048l0.019,0.015l0.188,0.123l0.08,0.053c0.098,0.062,0.196,0.122,0.292,0.18c0.028,0.014,0.056,0.029,0.082,0.045c0.072,0.041,0.147,0.083,0.22,0.121c0.04,0.023,0.081,0.042,0.123,0.062c0.05,0.028,0.102,0.055,0.156,0.083c0.015,0.005,0.027,0.009,0.039,0.016l-0.001-0.001c0.022,0.01,0.043,0.021,0.064,0.031c0.08,0.04,0.164,0.078,0.25,0.116c0.016,0.007,0.033,0.013,0.051,0.023c0.096,0.042,0.192,0.082,0.292,0.121c0.023,0.007,0.047,0.018,0.07,0.027c0.09,0.034,0.183,0.068,0.274,0.101l0.033,0.012c0.102,0.034,0.203,0.068,0.306,0.1c0.024,0.007,0.049,0.015,0.074,0.022c0.106,0.032,0.209,0.07,0.316,0.09c6.849,1.242,8.839-4.097,8.839-4.097c-1.672,2.166-4.639,2.738-7.45,2.102c-0.104-0.024-0.208-0.057-0.313-0.088c-0.191-0.055-0.317-0.096-0.442-0.139l0.063,0.019l-0.041-0.016c-0.091-0.031-0.178-0.064-0.267-0.098c-0.017-0.007-0.041-0.017-0.066-0.025l-0.007-0.002c-0.098-0.039-0.194-0.08-0.288-0.121c-0.021-0.007-0.038-0.016-0.059-0.024c-0.175-0.077-0.254-0.115-0.333-0.153l0.092,0.041c-0.025-0.011-0.047-0.022-0.071-0.035c-0.063-0.029-0.125-0.062-0.187-0.094c-0.057-0.027-0.098-0.048-0.138-0.07l0.013,0.007c-0.075-0.04-0.151-0.083-0.226-0.124c-0.023-0.016-0.049-0.029-0.075-0.044c-0.144-0.084-0.24-0.144-0.334-0.204l0.042,0.025c-0.032-0.02-0.058-0.037-0.083-0.055l0.004,0.003c-0.082-0.051-0.147-0.094-0.211-0.138c-0.022-0.015-0.043-0.031-0.066-0.047c-0.085-0.059-0.149-0.105-0.212-0.152l0.016,0.011c-0.028-0.023-0.058-0.044-0.088-0.066c-0.059-0.046-0.118-0.09-0.177-0.138l-0.079-0.062c-0.085-0.068-0.155-0.128-0.225-0.188c-0.007-0.007-0.014-0.013-0.022-0.018l-0.001-0.001l-0.232-0.21l-0.067-0.062c-0.055-0.055-0.111-0.108-0.167-0.163l-0.065-0.066c-0.069-0.068-0.136-0.138-0.202-0.21l-0.004-0.005l-0.01-0.011c-0.071-0.077-0.14-0.155-0.209-0.235c-0.018-0.021-0.035-0.042-0.053-0.064l-0.151-0.184c-0.053-0.065-0.127-0.162-0.2-0.26l-0.027-0.037c-1.559-2.117-2.123-5.04-0.875-7.437l-1.102,1.393c-1.417,2.026-1.242,4.66-0.158,6.812C8.883,18.798,8.91,18.848,8.937,18.897z"></path><polygon fill="#D9A4FC" points="13.708 15.978 13.701 15.968 13.696 15.96"></polygon><path fill="#D9A4FC" d="M14.454,16.853l0.06,0.06c0.076,0.073,0.154,0.145,0.234,0.216l0.01,0.009c0.08,0.07,0.17,0.145,0.262,0.217l0.014,0.011c0.023,0.015,0.042,0.033,0.064,0.048c0.093,0.072,0.188,0.141,0.285,0.209l0.01,0.006c0.041,0.03,0.085,0.057,0.132,0.086c0.019,0.012,0.04,0.028,0.06,0.04c0.071,0.045,0.14,0.088,0.212,0.131c0.011,0.005,0.021,0.011,0.032,0.015c0.06,0.036,0.125,0.072,0.188,0.104c0.022,0.013,0.043,0.023,0.066,0.036c0.045,0.022,0.089,0.045,0.131,0.068l0.021,0.009c0.09,0.044,0.182,0.085,0.272,0.126c0.023,0.009,0.042,0.016,0.061,0.025c0.074,0.032,0.149,0.062,0.224,0.091c0.033,0.011,0.065,0.025,0.096,0.035c0.068,0.025,0.14,0.048,0.207,0.072l0.093,0.03c0.097,0.03,0.196,0.069,0.299,0.086C22.776,19.454,24,15.403,24,15.403c-1.102,1.578-3.235,2.33-5.508,1.743c-0.138-0.035-0.238-0.065-0.337-0.097l0.038,0.011c-0.032-0.009-0.06-0.019-0.091-0.028c-0.069-0.024-0.141-0.047-0.208-0.072l-0.096-0.036c-0.075-0.03-0.151-0.058-0.224-0.09c-0.023-0.01-0.043-0.017-0.061-0.027c-0.093-0.042-0.188-0.083-0.278-0.128l-0.137-0.071l-0.079-0.04c-0.061-0.032-0.118-0.065-0.177-0.1c-0.017-0.008-0.03-0.015-0.043-0.024l0.002,0.001c-0.071-0.044-0.144-0.086-0.212-0.132c-0.023-0.013-0.043-0.028-0.065-0.041l-0.139-0.09c-0.096-0.066-0.19-0.138-0.285-0.207c-0.021-0.019-0.042-0.035-0.063-0.052c-0.999-0.782-1.788-1.85-2.161-3.06c-0.394-1.258-0.307-2.669,0.373-3.814l-0.836,1.179c-1.027,1.467-0.969,3.429-0.17,4.981c0.146,0.287,0.294,0.529,0.458,0.76c0.152,0.218,0.32,0.472,0.523,0.647C14.296,16.696,14.373,16.774,14.454,16.853z"></path><polygon fill="#D9A4FC" points="9.624 19.995 9.621 19.99 9.617 19.985"></polygon><polygon fill="#D9A4FC" points="12.396 19.498 12.402 19.503 12.404 19.505"></polygon><path fill="#BE63F9" d="M17.111,8.952c-0.606,0.885-0.664,1.983-0.247,2.959c0.443,1.036,1.35,1.85,2.406,2.235c0.043,0.017,0.085,0.031,0.13,0.047l0.059,0.018c0.061,0.019,0.124,0.042,0.187,0.056c2.921,0.561,3.712-1.492,3.924-1.794c-0.696,0.994-1.862,1.232-3.292,0.886c-0.14-0.035-0.255-0.071-0.367-0.114l0.022,0.007c-0.169-0.059-0.305-0.116-0.437-0.18l0.025,0.011c-0.273-0.133-0.508-0.277-0.726-0.442c-1.279-0.967-2.069-2.807-1.235-4.307L17.111,8.952z"></path></svg>